<?xml version="1.0" encoding="utf-8"?>
<!-- Generator: Adobe Illustrator 25.2.0, SVG Export Plug-In . SVG Version: 6.00 Build 0)  -->
<svg version="1.1" id="Layer_1" xmlns="http://www.w3.org/2000/svg" xmlns:xlink="http://www.w3.org/1999/xlink" x="0px" y="0px"
	 viewBox="0 0 119.06 48.19" style="enable-background:new 0 0 119.06 48.19;" xml:space="preserve">
<style type="text/css">
	.st0{fill:#FEDE00;}
	.st1{fill:#020202;}
</style>
<g>
	<path class="st0" d="M1.09,23.58L1.09,23.58c0-13.24,11.17-22.95,23.97-22.95H94c13.24,0,23.97,9.71,23.97,22.95
		c0,13.24-10.73,23.97-23.97,23.97H25.05C11.82,47.55,1.09,36.82,1.09,23.58"/>
	<path class="st0" d="M40.34,16.63c-1.42-3.01-3.51-5.14-5.87-5.98c-2.07-0.75-4.38-0.54-6.81,0.61c-2.62,1.23-4.88,3.71-5.89,6.45
		c-1.43,3.99-1.03,9.53,0.99,13.82c1.36,2.88,3.44,4.94,5.86,5.81c2.12,0.76,4.39,0.58,6.78-0.55l0.04-0.01
		c2.87-1.35,4.95-3.66,6-6.68c0.54-1.51,0.79-3.24,0.79-5.04C42.22,22.25,41.58,19.25,40.34,16.63 M40.52,29.98
		c-0.98,2.74-2.84,4.86-5.22,5.99l-0.03,0.02c-4.4,2.08-8.49,0.52-11.12-4.17c-0.19-0.33-0.37-0.68-0.54-1.04
		c-0.86-1.8-1.39-3.88-1.62-5.95c-0.27-2.45-0.1-4.88,0.57-6.82c0.98-2.74,2.77-4.79,5.17-5.92c4.59-2.17,8.52-0.67,11.18,4.17
		c0.17,0.3,0.33,0.62,0.48,0.95c0.97,2.05,1.56,4.4,1.75,6.68C41.33,26.11,41.14,28.26,40.52,29.98"/>
	<polygon class="st1" points="74.01,10.01 62.05,31.33 61.97,31.33 59,10.01 51.77,10.01 45.79,38.19 51,38.19 55.5,17.05 
		55.58,17.05 58.32,38.19 62.73,38.19 74.42,17.05 74.54,17.05 70.04,38.19 75.26,38.19 80.2,14.88 88.05,14.88 83.11,38.19 
		88.32,38.19 93.27,14.88 101.47,14.88 102.5,10.01 	"/>
	<path class="st1" d="M34.84,9.43c-0.61,0-1.22,0.04-1.82,0.11c-1.79-0.24-3.69,0.12-5.68,1.05c-1.61,0.76-3.09,1.97-4.26,3.42
		c-3.91,3.36-6.52,8.2-6.52,13.29c0,0.88,0.08,1.71,0.26,2.55c1.1,5.36,5.79,8.91,11.69,8.91c0.84,0,1.68-0.09,2.51-0.22
		c1.51,0.04,3.08-0.32,4.68-1.07l0.04-0.02c1.41-0.67,2.63-1.56,3.66-2.63c4.31-3.36,7.27-8.47,7.27-13.79
		C46.67,14.35,41.68,9.43,34.84,9.43 M41.42,30.1c-1.05,3.01-3.13,5.32-6,6.67l-0.04,0.01c-2.38,1.13-4.66,1.31-6.78,0.55
		c-2.42-0.87-4.5-2.93-5.86-5.81c-2.02-4.29-2.42-9.83-0.99-13.81c1.02-2.74,3.27-5.22,5.89-6.45c2.44-1.16,4.74-1.36,6.82-0.61
		c2.36,0.85,4.45,2.97,5.87,5.98c1.24,2.63,1.88,5.62,1.88,8.43C42.22,26.86,41.96,28.59,41.42,30.1"/>
	<path class="st1" d="M38.92,16.26c-2.65-4.85-6.58-6.34-11.18-4.17c-2.4,1.13-4.19,3.18-5.17,5.92c-0.67,1.94-0.84,4.37-0.57,6.82
		c0.23,2.07,0.76,4.15,1.62,5.95c0.17,0.36,0.35,0.71,0.54,1.04c2.63,4.68,6.72,6.25,11.12,4.17l0.03-0.02
		c2.39-1.12,4.24-3.25,5.22-5.98c0.62-1.72,0.81-3.88,0.62-6.1c-0.19-2.28-0.78-4.63-1.75-6.67C39.25,16.87,39.08,16.56,38.92,16.26
		 M40.43,26.23c-1.85,4.32-6.27,7.66-10.96,7.66c-1.35,0-2.56-0.33-3.62-0.88c-0.78-0.98-1.29-1.96-1.57-2.55
		c-1.14-2.41-1.71-5.31-1.68-7.98c1.71-4.55,6.31-8.16,11.13-8.16c1.36,0,2.59,0.34,3.66,0.89c0.52,0.73,0.97,1.53,1.35,2.31
		c1.14,2.44,1.75,5.32,1.75,7.94C40.48,25.73,40.44,25.97,40.43,26.23"/>
</g>
</svg>
